Genre:Comedy
Language:English
 
http://www.imdb.com/title/tt1478338/

Source:VIDEOevichnik.v.Vegase.2011.D.TS/IMAGINE Thanks!

Format : MPEG-4
Format profile : Base Media
Codec ID : isom
File size : 1.21 GiB
Duration : 1h 57mn
Overall bit rate : 1 477 Kbps

Video
ID : 1
Format : AVC
Format/Info : Advanced Video Codec
Format profile : High@L4.1
Format settings, CABAC : Yes
Format settings, ReFrames : 3 frames
Codec ID : avc1
Codec ID/Info : Advanced Video Coding
Duration : 1h 57mn
Bit rate mode : Variable
Bit rate : 1 253 Kbps
Maximum bit rate : 3 941 Kbps
Width : 720 pixels
Height : 304 pixels
Display aspect ratio : 2.35:1
Frame rate mode : Constant
Frame rate : 25.000 fps
Color space : YUV
Chroma subsampling : 4:2:0
Bit depth : 8 bits
Scan type : Progressive
Bits/(Pixel*Frame) : 0.229
Stream size : 1.03 GiB (85%)
Writing library : x264

Audio
ID : 2
Format : AAC
Format/Info : Advanced Audio Codec
Format version : Version 4
Format profile : LC
Format settings, SBR : No
Codec ID : 40
Duration : 1h 57mn
Bit rate mode : Variable
Bit rate : 224 Kbps
Maximum bit rate : 253 Kbps
Channel(s) : 2 channels
Channel positions : Front: L R
Sampling rate : 44.1 KHz
Stream size : 188 MiB (15%)


Plot:
Picked as her best friend's maid of honor, lovelorn and broke Annie looks to bluff her way through the expensive and bizarre rituals with an oddball group of bridesmaids.
 
http://leetleech.org/images/08220495473387190655.png
 
http://leetleech.org/images/14613984562157479627.png
 
http://leetleech.org/images/84599864101987288741.png
 
http://leetleech.org/images/03614049270670369690.png